PathFileType   4   (X/Y/Z)																																																																																																																							
DataRate	CameraRate	NumFrames	NumMarkers	Units	OrigDataRate	OrigDataStartFrame	OrigNumFrames																																																																																																																
120	120	4	37	mm	120	52	136																																																																																																																
Frame#	Time	Sternum	R.Acromium	L.Acromium	Top.Head	R.ASIS	L.ASIS	V.Sacral	R.Thigh.Upper	R.Thigh.Front	R.Thigh.Rear	R.Knee.Lat	R.Knee.Med	R.Shank.Upper	R.Shank.Front	R.Shank.Rear	R.Ankle.Lat	R.Ankle.Med	R.Heel	R.Midfoot.Sup	R.Midfoot.Lat	R.Toe.Lat	R.Toe.Med	R.Toe.Tip	L.Thigh.Upper	L.Thigh.Front	L.Thigh.Rear	L.Knee.Lat	L.Knee.Med	L.Shank.Upper	L.Shank.Front	L.Shank.Rear	L.Ankle.Lat	L.Ankle.Med	L.Heel	L.Midfoot.Sup	L.Midfoot.Lat	L.Toe.Lat	L.Toe.Med	L.Toe.Tip																																																																															
 	 	X1	Y1	Z1	X2	Y2	Z2	X3	Y3	Z3	X4	Y4	Z4	X5	Y5	Z5	X6	Y6	Z6	X7	Y7	Z7	X8	Y8	Z8	X9	Y9	Z9	X10	Y10	Z10	X11	Y11	Z11	X12	Y12	Z12	X13	Y13	Z13	X14	Y14	Z14	X15	Y15	Z15	X16	Y16	Z16	X17	Y17	Z17	X18	Y18	Z18	X19	Y19	Z19	X20	Y20	Z20	X21	Y21	Z21	X22	Y22	Z22	X23	Y23	Z23	X24	Y24	Z24	X25	Y25	Z25	X26	Y26	Z26	X27	Y27	Z27	X28	Y28	Z28	X29	Y29	Z29	X30	Y30	Z30	X31	Y31	Z31	X32	Y32	Z32	X33	Y33	Z33	X34	Y34	Z34	X35	Y35	Z35	X36	Y36	Z36	X37	Y37	Z37	X38	Y38	Z38	X39	Y39	Z39	
																																																																																																																							
	52	0.65833	1844.25124	-0.001000353	1234.781504	1777.356172	-161.6639114	1309.151125	1780.036658	164.9109026	1308.557803	1906.831339	-10.07056321	1519.659648	1830.907241	-126.4287728	864.3477996	1836.163738	128.1563878	855.8275399	1642.724313	-6.022778891	886.710342	1862.154162	-163.1570236	611.2393231	1934.862471	-74.72940176	582.8622876	1901.668078	-154.4047096	505.7823237	1902.681714	-137.316947	418.3042686	1907.885931	-24.75841468	403.6298428	1883.92075	-149.3438724	379.7963507	1962.967006	-96.85682453	368.6296387	1922.653703	-158.2831336	305.7648568	2005.482117	-134.0955655	43.37707557	2008.547025	-48.0330811	58.95499226	1946.794159	-83.91925551	13.0180483	2081.712649	-49.92190453	44.53095485	2079.552241	-153.2800315	24.95877048	2168.297169	-162.0397613	15.03515852	2168.632042	-57.59368751	27.8214942	2226.595893	-88.18151523	37.06006792	1717.142749	167.6781368	579.6240783	1778.421313	97.4394069	524.7290403	1684.095849	153.3828701	483.846302	1631.310493	138.945524	372.6538648	1632.572627	31.06670304	373.0222153	1617.415461	156.0706667	352.6152595	1638.660387	102.6419486	291.954424	1586.323483	166.4841022	320.3809744	1487.315788	133.6260322	34.04450774	1499.41967	45.5255286	53.36322325	1413.014536	81.19863714	36.15294265	1575.174256	55.77109965	0.528473881	1557.937012	150.766436	4.589176861	1612.11165	160.8566492	-31.17375742	1628.08513	62.45973316	-34.95677	1674.394075	86.83216932	-45.04480914
	53	0.66667	1851.729463	-0.001000353	1234.504889	1784.736922	-161.6639114	1308.786717	1787.418184	164.9109026	1308.196911	1913.93591	-10.07056321	1519.464857	1838.800575	-126.4287728	863.9076765	1844.057431	128.1563878	855.3876378	1650.616707	-6.022778891	886.262309	1869.631494	-163.1570236	610.4582215	1942.266699	-74.72940176	581.8945852	1908.874496	-154.4047096	504.9001093	1909.66351	-137.316947	417.4197398	1914.830029	-24.75841468	402.7319994	1890.457685	-149.3438724	378.9923332	1969.397287	-96.85682453	367.0950555	1928.504316	-158.2831336	304.6057915	2008.902548	-134.0955655	41.46320996	2012.111395	-48.0330811	57.01211526	1949.885126	-83.91925551	11.74988938	2085.137711	-49.92190453	41.79652683	2082.764993	-153.2800315	22.24894458	2171.396982	-162.0397613	11.36267482	2171.870619	-57.59368751	24.14462256	2229.931331	-88.18151523	32.75350921	1724.364265	167.6781368	579.2282193	1785.45218	97.4394069	524.1211038	1690.985573	153.3828701	483.5655674	1637.815112	138.945524	372.5567658	1639.078515	31.06670304	372.9207392	1623.19723	156.0706667	352.754911	1643.537991	102.6419486	291.7849408	1591.629476	166.4841022	320.9864185	1488.375889	133.6260322	36.15349795	1500.765636	45.5255286	55.2901356	1414.114569	81.19863714	39.37472594	1575.722196	55.77109965	1.324068545	1558.547744	150.766436	5.642639607	1612.18034	160.8566492	-30.92816083	1628.095333	62.45973316	-34.95013343	1674.247894	86.83216932	-45.73104372
	54	0.675	1859.33957	-0.001000353	1234.278895	1792.263777	-161.6639114	1308.485556	1794.945698	164.9109026	1307.898757	1921.226444	-10.07056321	1519.308438	1846.774804	-126.4287728	863.5609275	1852.033342	128.1563878	855.0419273	1658.586524	-6.022778891	885.8783897	1877.203662	-163.1570236	609.756678	1949.765432	-74.72940176	581.0070015	1916.176033	-154.4047096	504.0983488	1916.740869	-137.316947	416.6162446	1921.869732	-24.75841468	401.9153128	1897.006725	-149.3438724	378.2839534	1975.811868	-96.85682453	365.5263896	1934.239759	-158.2831336	303.486862	2011.763114	-134.0955655	39.48302988	2015.141362	-48.0330811	54.99601141	1952.369064	-83.91925551	10.53003659	2087.99262	-49.92190453	38.85516852	2085.371642	-153.2800315	19.33932283	2173.858105	-162.0397613	7.327408011	2174.494164	-57.59368751	20.10230327	2232.659606	-88.18151523	27.97253511	1731.804303	167.6781368	578.9030446	1792.735886	97.4394069	523.6231229	1698.154787	153.3828701	483.3353193	1644.670115	138.945524	372.4775647	1645.934544	31.06670304	372.8379581	1629.282282	156.0706667	352.9354948	1648.679531	102.6419486	291.6588225	1597.227933	166.4841022	321.6580442	1489.590169	133.6260322	38.45280451	1502.27382	45.5255286	57.39592312	1415.392365	81.19863714	42.90118391	1576.346373	55.77109965	2.174229132	1559.245943	150.766436	6.777179266	1612.26434	160.8566492	-30.67850562	1628.110406	62.45973316	-34.96400006	1674.077727	86.83216932	-46.50923001
	55	0.68333	1867.074741	-0.001000353	1234.113178	1799.930404	-161.6639114	1308.257825	1802.612867	164.9109026	1307.673505	1928.698202	-10.07056321	1519.199787	1854.822936	-126.4287728	863.322436	1860.084815	128.1563878	854.8054986	1666.625919	-6.022778891	885.5660991	1884.867094	-163.1570236	609.145571	1957.355079	-74.72940176	580.2103634	1923.569046	-154.4047096	503.3878896	1923.910085	-137.316947	415.9046268	1929.001325	-24.75841468	401.1906226	1903.579846	-149.3438724	377.683837	1982.222233	-96.85682453	363.9586412	1939.890735	-158.2831336	302.4347636	2014.163358	-134.0955655	37.4980325	2017.73202	-48.0330811	52.96832011	1954.363316	-83.91925551	9.393268926	2090.372781	-49.92190453	35.80325759	2087.476885	-153.2800315	16.32630853	2175.78518	-162.0397613	3.067905752	2176.601305	-57.59368751	15.83256241	2234.871937	-88.18151523	22.881864	1739.484725	167.6781368	578.6564864	1800.301846	97.4394069	523.2506625	1705.637625	153.3828701	483.1585604	1651.923788	138.945524	372.4116613	1653.188959	31.06670304	372.7694388	1635.711185	156.0706667	353.1558285	1654.119349	102.6419486	291.5747975	1603.157415	166.4841022	322.3985161	1490.973919	133.6260322	40.96298337	1503.960915	45.5255286	59.69943624	1416.870738	81.19863714	46.77516826	1577.042838	55.77109965	3.074185161	1560.030592	150.766436	7.993061232	1612.346182	160.8566492	-30.43814776	1628.110158	62.45973316	-35.01639062	1673.855766	86.83216932	-47.41099669
